<?xml version="1.0" encoding="UTF-8" standalone="no"?><!DOCTYPE svg PUBLIC "-//W3C//DTD SVG 1.1//EN" "http://www.w3.org/Graphics/SVG/1.1/DTD/svg11.dtd"><svg width="100%" height="100%" viewBox="0 0 50 50" version="1.1" xmlns="http://www.w3.org/2000/svg" xmlns:xlink="http://www.w3.org/1999/xlink" xml:space="preserve" xmlns:serif="http://www.serif.com/" style="fill-rule:evenodd;clip-rule:evenodd;stroke-linecap:round;stroke-linejoin:round;stroke-miterlimit:1.5;"><rect id="Artboard1" x="0" y="0" width="50" height="50" style="fill:none;"/><clipPath id="_clip1"><rect id="Artboard11" serif:id="Artboard1" x="0" y="0" width="50" height="50"/></clipPath><g clip-path="url(#_clip1)"><circle cx="-0.133" cy="0.144" r="49.685" style="fill:url(#_Linear2);"/><g><g><circle cx="-3.936" cy="-3.839" r="18.914" style="fill:#9bac6a;"/></g><g opacity="0.3"><circle cx="-3.936" cy="-3.839" r="36.969" style="fill:#fff;fill-opacity:0;stroke:#fff;stroke-width:2px;"/></g><g><path d="M35.292,8.554c1.42,3.319 -0.121,7.167 -3.44,8.587c-3.32,1.42 -7.167,-0.122 -8.587,-3.441c-1.42,-3.319 0.121,-7.167 3.44,-8.587c3.32,-1.42 7.167,0.122 8.587,3.441Z" style="fill:#f1f4ff;"/></g><g><path d="M17.35,31.707c-1.506,3.281 -5.393,4.721 -8.674,3.215c-3.281,-1.506 -4.721,-5.393 -3.215,-8.674c1.506,-3.281 5.393,-4.721 8.674,-3.215c3.281,1.506 4.721,5.393 3.215,8.674Z" style="fill:#f1f4ff;"/></g></g></g><defs><linearGradient id="_Linear2" x1="0" y1="0" x2="1" y2="0" gradientUnits="userSpaceOnUse" gradientTransform="matrix(4.94138,0.36628,-0.36628,4.94138,42.5537,32.8522)"><stop offset="0" style="stop-color:#fff;stop-opacity:0.1"/><stop offset="1" style="stop-color:#b3b3b3;stop-opacity:0.1"/></linearGradient></defs></svg>